<?xml version="1.0" encoding="utf-8"?>
<!-- Generator: Adobe Illustrator 26.3.1, SVG Export Plug-In . SVG Version: 6.00 Build 0)  -->
<svg version="1.1" id="Capa_1" xmlns="http://www.w3.org/2000/svg" xmlns:xlink="http://www.w3.org/1999/xlink" x="0px" y="0px"
	 viewBox="0 0 537.8 537.8" style="enable-background:new 0 0 537.8 537.8;" xml:space="preserve">
<style type="text/css">
	.st0{fill:#FFFFFF;}
</style>
<g>
	<g>
		<path class="st0" d="M463.1,466.1H74.9c-11.9,0-21.5,9.7-21.5,21.5v28.7c0,11.9,9.7,21.5,21.5,21.5h388.1
			c11.9,0,21.5-9.7,21.5-21.5v-28.7C484.7,475.7,474.9,466.1,463.1,466.1z"/>
		<path class="st0" d="M253.9,427.6c4.2,4.2,9.7,6.4,15.1,6.4c5.5,0,11-2.1,15.1-6.4l147-147c8.3-8.3,8.3-22,0-30.4l-20.3-20.3
			c-8.3-8.3-22-8.3-30.4,0l-75.6,75.7v-284c0-11.9-9.7-21.5-21.5-21.5h-28.7c-11.9,0-21.5,9.6-21.5,21.5v284l-75.7-75.7
			c-8.3-8.3-22-8.3-30.4,0l-20.3,20.3c-8.3,8.3-8.3,22,0,30.4L253.9,427.6z"/>
	</g>
</g>
</svg>
